<svg width="20" height="14" viewBox="0 0 20 14" fill="none" xmlns="http://www.w3.org/2000/svg">
<g opacity="0.6">
<path d="M9.88291 9.50369C13.0643 6.3039 16.2382 3.11167 19.3348 0H0.463379C3.68959 3.25517 6.86597 6.46251 9.88042 9.50369H9.88291Z" fill="white"/>
<path d="M1.09619 14H18.8814C17.0229 12.1018 15.1719 10.2086 13.1764 8.16944C12.8376 8.55714 12.4789 9.01533 12.0753 9.42569C10.0598 11.48 9.87796 11.4875 7.8376 9.37786C7.44397 8.97002 7.20979 8.40861 6.98807 8.05615C4.79574 10.2691 2.95967 12.122 1.09868 14.0026L1.09619 14Z" fill="white"/>
<path d="M19.9999 1.82275C18.1215 3.67314 16.268 5.49583 14.5415 7.19769C16.3402 9.04807 18.1638 10.9236 19.9999 12.8143V1.82275Z" fill="white"/>
<path d="M0 1.78516V12.8271C1.87344 10.9414 3.70952 9.09607 5.53563 7.25827C3.75685 5.49852 1.90085 3.66324 0 1.78516Z" fill="white"/>
<path d="M9.88291 9.50369C6.86597 6.46251 3.68959 3.25517 0.463379 0H19.3348C16.2382 3.11167 13.0643 6.3039 9.88291 9.50369Z" fill="#FAFAFA"/>
<path d="M1.09619 14.0001C2.95967 12.1195 4.79574 10.2666 6.98558 8.05371C7.2073 8.40617 7.44148 8.97009 7.83511 9.37542C9.87546 11.4851 10.0573 11.4776 12.0728 9.42325C12.4764 9.01289 12.8351 8.5547 13.1739 8.167C15.1694 10.2062 17.0229 12.0994 18.879 13.9976H1.09619V14.0001Z" fill="#FAFAFA"/>
<path d="M19.9999 1.82283V12.8119C18.1638 10.9237 16.3377 9.04563 14.5415 7.19525C16.268 5.49591 18.1215 3.6707 19.9999 1.82031V1.82283Z" fill="#FAFAFA"/>
<path d="M0 1.78516C1.90085 3.66324 3.75685 5.49852 5.53563 7.25575C3.70952 9.09355 1.87344 10.9414 0 12.8245V1.78516Z" fill="#FAFAFA"/>
</g>
</svg>
