<svg width="18" height="16" viewBox="0 0 18 16" fill="none" xmlns="http://www.w3.org/2000/svg">
<path opacity="0.6" fill-rule="evenodd" clip-rule="evenodd" d="M16.6531 11.293C16.2309 11.0857 14.1738 10.0802 13.79 9.942C13.4062 9.79615 13.1222 9.73475 12.8459 10.1492C12.5695 10.5637 11.7559 11.5002 11.5179 11.7689C11.2723 12.0452 11.0344 12.0836 10.6045 11.8763C10.19 11.6691 8.83904 11.2392 7.23478 9.8115C5.99896 8.71385 5.14693 7.35522 4.90898 6.94072C4.67103 6.52622 4.88595 6.30362 5.0932 6.09637C5.2851 5.90447 5.5077 5.60511 5.72262 5.36716C5.77636 5.29807 5.83009 5.22899 5.87614 5.16758C5.97593 5.01406 6.04501 4.86822 6.13712 4.66865C6.28296 4.39232 6.20621 4.14669 6.10642 3.93944C5.99896 3.73219 5.16228 1.68272 4.80919 0.853723C4.46378 0.0247255 4.11068 0.162891 3.86506 0.162891C3.61943 0.162891 3.34309 0.124512 3.06676 0.124512C2.79043 0.124512 2.32987 0.231975 1.94608 0.646474C1.56228 1.06097 0.47998 2.06652 0.47998 4.11598C0.47998 4.59956 0.564415 5.07547 0.694906 5.52835C1.11708 6.99445 2.03051 8.19956 2.19171 8.40681C2.39896 8.67547 5.08552 13.0124 9.33798 14.6857C13.5981 16.3437 13.5981 15.791 14.3657 15.7143C15.1333 15.6529 16.845 14.7164 17.1904 13.7416C17.5435 12.7744 17.5435 11.9454 17.4361 11.7689C17.3286 11.6 17.0523 11.5002 16.6378 11.2853L16.6531 11.293Z" fill="#FAFAFA"/>
</svg>
