<svg width="15" height="10" viewBox="0 0 15 10" fill="none" xmlns="http://www.w3.org/2000/svg">
<path d="M3.13616 2.17994C5.54609 -0.230002 9.45338 -0.230002 11.8633 2.17994L12.1534 2.46998C12.2739 2.59047 12.2739 2.78584 12.1534 2.90633L11.1612 3.8985C11.1009 3.95875 11.0033 3.95875 10.943 3.8985L10.5439 3.49937C8.86265 1.81814 6.13683 1.81814 4.45559 3.49937L4.02816 3.92681C3.96791 3.98706 3.87023 3.98706 3.80998 3.92681L2.81781 2.93464C2.69732 2.81414 2.69732 2.61878 2.81781 2.49828L3.13616 2.17994ZM13.9152 4.23185L14.7982 5.11488C14.9187 5.23538 14.9187 5.43074 14.7982 5.55124L10.8166 9.53295C10.6961 9.65345 10.5007 9.65345 10.3802 9.53296C10.3802 9.53296 10.3802 9.53295 10.3802 9.53295L7.5543 6.70701C7.52417 6.67689 7.47534 6.67689 7.44521 6.70701C7.44521 6.70702 7.44521 6.70701 7.44521 6.70701L4.61934 9.53295C4.49884 9.65345 4.30348 9.65345 4.18298 9.53296C4.18298 9.53296 4.18298 9.53296 4.18298 9.53295L0.201213 5.55119C0.0807156 5.43069 0.0807156 5.23533 0.201213 5.11483L1.08425 4.2318C1.20474 4.1113 1.40011 4.1113 1.5206 4.2318L4.34658 7.05777C4.3767 7.0879 4.42554 7.0879 4.45567 7.05777C4.45567 7.05777 4.45567 7.05777 4.45567 7.05777L7.2815 4.2318C7.402 4.1113 7.59736 4.11129 7.71786 4.23178C7.71786 4.23179 7.71786 4.23179 7.71787 4.23179L10.5438 7.05777C10.574 7.0879 10.6228 7.0879 10.6529 7.05777L13.4789 4.23185C13.5994 4.11135 13.7947 4.11135 13.9152 4.23185Z" fill="white"/>
</svg>
